<svg id="Capa_1" data-name="Capa 1" xmlns="http://www.w3.org/2000/svg" viewBox="0 0 26.659 30.312"><defs><style>.cls-1{opacity:0.8;}.cls-2{fill:#fff;}.cls-3{opacity:0.9;}</style></defs><g class="cls-1"><path class="cls-2" d="M10.372,4.125a4.379,4.379,0,0,1,.882.17,1.787,1.787,0,0,1,.994.73,2.063,2.063,0,0,1,.275.772h3.84a5.022,5.022,0,0,0-.231-1.433,4.492,4.492,0,0,0-.691-1.338,5.317,5.317,0,0,0-2.89-1.8,8.522,8.522,0,0,0-1.624-.3C10.316.874,9.578.844,8.728.844H3.337L2.671,4.067H8.992A13.591,13.591,0,0,1,10.372,4.125Z" transform="translate(-2.671 -0.844)"/><path class="cls-2" d="M18.759,4.527h4.184a2.693,2.693,0,0,1,1.776.525,1.682,1.682,0,0,1,.515.745h3.821a5.313,5.313,0,0,0-.684-2.385A4.508,4.508,0,0,0,26.319,1.59,7.645,7.645,0,0,0,23.066.961H15.085l1.594,3.382.09.184.6,1.27h1.391Z" transform="translate(-2.671 -0.844)"/></g><g class="cls-1"><polygon class="cls-2" points="5.506 25.36 8.067 30.312 12.276 30.312 9.6 25.36 5.506 25.36"/><path class="cls-2" d="M24.909,26.914a2.88,2.88,0,0,1-1.966.614h-.276l1.655,3.511a7,7,0,0,0,2.234-.574,4.554,4.554,0,0,0,2.064-1.831,5.353,5.353,0,0,0,.7-2.431h-3.9A1.929,1.929,0,0,1,24.909,26.914Z" transform="translate(-2.671 -0.844)"/></g><g class="cls-3"><path class="cls-2" d="M16.365,11.1a7.443,7.443,0,0,1-.336,2.257,5.514,5.514,0,0,1-1.06,1.913,6.624,6.624,0,0,1-1.846,1.474,9.988,9.988,0,0,1-2.574.953l4.4,8.139H10.738L7.19,18.976,5.175,15.029H6.518c.647,0,1.236-.023,1.746-.064a7.435,7.435,0,0,0,1.369-.239,4.5,4.5,0,0,0,2.146-1.2,3.011,3.011,0,0,0,.775-2.143,2.2,2.2,0,0,0-.306-1.171,1.792,1.792,0,0,0-.994-.731,4.387,4.387,0,0,0-.882-.169,13.591,13.591,0,0,0-1.38-.058H2.671l.666-3.223H8.728c.85,0,1.588.03,2.2.089a8.522,8.522,0,0,1,1.624.3,5.312,5.312,0,0,1,2.89,1.8,4.492,4.492,0,0,1,.691,1.338A5.076,5.076,0,0,1,16.365,11.1Z" transform="translate(-2.671 -0.844)"/><path class="cls-2" d="M29.329,20.387v.04a5.581,5.581,0,0,1-.709,2.887,4.554,4.554,0,0,1-2.064,1.831,6.971,6.971,0,0,1-2.234.574l-1.655-3.511h.276a2.88,2.88,0,0,0,1.966-.614,2.172,2.172,0,0,0,.694-1.72v-.043a2.471,2.471,0,0,0-.31-1.269,1.987,1.987,0,0,0-.912-.8,3.419,3.419,0,0,0-1.438-.276H20.436L18.759,13.93v-.01h4.184a2.519,2.519,0,0,0,1.776-.58,2.124,2.124,0,0,0,.629-1.634,1.82,1.82,0,0,0-.629-1.472,2.693,2.693,0,0,0-1.776-.525H18.759V13.92h0L16.769,9.709l-.09-.184L15.085,6.142h7.981a7.63,7.63,0,0,1,3.253.63,4.508,4.508,0,0,1,2.052,1.822,5.575,5.575,0,0,1,.7,2.869,4.4,4.4,0,0,1-.451,2.03,3.771,3.771,0,0,1-1.315,1.453,5.35,5.35,0,0,1-2.08.768,5.233,5.233,0,0,1,2.221.79,4,4,0,0,1,1.4,1.6A5.151,5.151,0,0,1,29.329,20.387Z" transform="translate(-2.671 -0.844)"/></g></svg>