<svg xmlns="http://www.w3.org/2000/svg" viewBox="0 0 32 32"><defs><style>.cls-1{fill:none;stroke:#fff;stroke-linecap:round;stroke-linejoin:round;stroke-width:1.186px;}</style></defs><g id="Capa_2" data-name="Capa 2"><rect width="32" height="32" rx="16"/></g><g id="Capa_1" data-name="Capa 1"><path class="cls-1" d="M17.327,26.407H12.443a.222.222,0,1,1,0-.443h4.884c3.577,0,6.488-2.58,6.488-5.751a5.514,5.514,0,0,0-2.5-4.537.221.221,0,0,1,.252-.364,5.949,5.949,0,0,1,2.692,4.9C24.259,23.628,21.149,26.407,17.327,26.407Z" transform="translate(0 0)"/><path class="cls-1" d="M21.441,15.716a.222.222,0,0,1-.111-.414A4.965,4.965,0,0,0,18.9,6.036H12.443a.222.222,0,1,1,0-.443H18.9a5.408,5.408,0,0,1,2.653,10.093A.217.217,0,0,1,21.441,15.716Z" transform="translate(0 0)"/><path class="cls-1" d="M10.02,26.173H9.973V5.825H15.3A4.889,4.889,0,0,1,19.1,7.42a5.277,5.277,0,0,1,1.266,3.509A5.277,5.277,0,0,1,19.1,14.438a4.89,4.89,0,0,1-3.8,1.6H10.02Zm0-10.186H15.3a4.83,4.83,0,0,0,5.018-5.058A4.83,4.83,0,0,0,15.3,5.871H10.02Z" transform="translate(0 0)"/><path class="cls-1" d="M10.02,26.405H9.973a.232.232,0,0,1-.232-.232V5.825a.232.232,0,0,1,.232-.232H15.3a5.117,5.117,0,0,1,3.972,1.674,5.509,5.509,0,0,1,1.324,3.662,5.509,5.509,0,0,1-1.324,3.662A5.117,5.117,0,0,1,15.3,16.265H10.251v9.908A.231.231,0,0,1,10.02,26.405Zm.231-10.65H15.3a4.608,4.608,0,0,0,4.786-4.826A4.608,4.608,0,0,0,15.3,6.1H10.251Z" transform="translate(0 0)"/><rect class="cls-1" x="13.657" y="14.514" width="0.046" height="10.563" transform="translate(-9.93 15.152) rotate(-44.227)"/><path class="cls-1" d="M17.347,23.827a.231.231,0,0,1-.166-.07L9.814,16.188a.23.23,0,0,1-.066-.165.234.234,0,0,1,.07-.163l.033-.032a.232.232,0,0,1,.328.005L17.547,23.4a.234.234,0,0,1,.065.165.23.23,0,0,1-.07.162l-.033.033A.229.229,0,0,1,17.347,23.827Z" transform="translate(0 0)"/></g></svg>