<svg id="Capa_3" data-name="Capa 3" xmlns="http://www.w3.org/2000/svg" viewBox="0 0 241.76 242.62"><defs><style>.cls-1{fill:#fff;}</style></defs><path class="cls-1" d="M228.51,150.14H194.85a35.08,35.08,0,0,0-10.94-1.63H150.64v1.63h-22V128.69h55.29q15.92,0,27.9,6.49c.82.44,1.6.91,2.38,1.39A46.11,46.11,0,0,1,228.51,150.14Z" transform="translate(-128.62 -128.69)"/><rect class="cls-1" y="221.17" width="22.02" height="21.45"/><polygon class="cls-1" points="110.84 242.62 84.9 242.62 81.34 234.74 75.21 221.17 100.58 221.17 107.07 234.74 110.84 242.62"/><path class="cls-1" d="M358.06,150.14H323.92a40,40,0,0,0-11.81-1.63H283v1.63H261.46V128.69h50.65q19.62,0,32.4,7.88a42.92,42.92,0,0,1,5.89,4.36A38.86,38.86,0,0,1,358.06,150.14Z" transform="translate(-128.62 -128.69)"/><path class="cls-1" d="M361,349.86a42.71,42.71,0,0,1-6.69,8.11,43.72,43.72,0,0,1-7.09,5.46q-12.66,7.88-31.44,7.88H261.46V349.86H283v1.63h30.34a44.58,44.58,0,0,0,12.45-1.63Z" transform="translate(-128.62 -128.69)"/><path class="cls-1" d="M214.2,339.81,179.94,264h-27.8v75.85h-23V160.19h55.79c10.64,0,20.11,2.2,28.14,6.55.85.46,1.66.94,2.4,1.4a46.77,46.77,0,0,1,14.47,13.72c.7,1,1.33,2,1.91,3a48,48,0,0,1,4.47,10.66,58.48,58.48,0,0,1,2.13,13.7c0,.95.08,1.86.08,2.8a61.89,61.89,0,0,1-.93,10.88,50.61,50.61,0,0,1-4.46,13.7,48.62,48.62,0,0,1-4.13,6.79,48.1,48.1,0,0,1-6.11,6.92,49.43,49.43,0,0,1-19.16,11l37.53,78.49Zm-29.29-96.67c8.14,0,14.92-2.38,20.16-7.08.59-.54,1.08-1,1.51-1.46a28.28,28.28,0,0,0,6.76-11.88,38.27,38.27,0,0,0,1.41-10.65c0-1,0-1.95-.09-2.75a33.3,33.3,0,0,0-3.42-13.38,27.31,27.31,0,0,0-4.66-6.52,26.82,26.82,0,0,0-10.89-6.81,34.88,34.88,0,0,0-10.78-1.6H152.14v62.13Z" transform="translate(-128.62 -128.69)"/><path class="cls-1" d="M184.91,160.69q15.92,0,27.9,6.49c.82.44,1.6.91,2.38,1.39a46.11,46.11,0,0,1,14.32,13.57c.66,1,1.29,2,1.89,3a47.6,47.6,0,0,1,4.42,10.55,57.41,57.41,0,0,1,2.11,13.58c0,.92.08,1.84.08,2.78a61.58,61.58,0,0,1-.92,10.79,49.89,49.89,0,0,1-4.42,13.57A47.87,47.87,0,0,1,222.54,250,48.87,48.87,0,0,1,203,261l1.22,2.56,6.49,13.57,6.49,13.57,6.49,13.58,13,27.14,3.77,7.88H214.52L211,331.43,198.7,304.29l-6.13-13.58-6.13-13.57-6.13-13.57-.05-.11H151.64v75.85h-22V160.69h55.29m-33.27,82.95h33.27q12.48,0,20.49-7.21c.52-.47,1-1,1.54-1.48a28.68,28.68,0,0,0,6.88-12.09,38.74,38.74,0,0,0,1.43-10.79c0-.95,0-1.87-.09-2.78a33.83,33.83,0,0,0-3.47-13.58,27.77,27.77,0,0,0-4.75-6.64,27.22,27.22,0,0,0-11.09-6.93,35.08,35.08,0,0,0-10.94-1.63H151.64v63.13m33.27-83.95H128.62V340.31h24V264.46h27l5.92,13.09,6.13,13.57,6.13,13.58,12.26,27.14,3.56,7.88.26.59h28.18l-.69-1.43L237.59,331l-13-27.14-6.49-13.58-6.49-13.57-6.49-13.57-.72-1.52a48.57,48.57,0,0,0,29.14-24.74A50.68,50.68,0,0,0,238.07,223a61.84,61.84,0,0,0,.94-11c0-1,0-1.9-.08-2.82a58.46,58.46,0,0,0-2.15-13.82,49,49,0,0,0-4.51-10.77c-.59-1-1.22-2-1.93-3.08a47.3,47.3,0,0,0-14.63-13.86c-.75-.47-1.57-1-2.43-1.42-8.1-4.39-17.65-6.61-28.37-6.61Zm-32.27,21.82h32.27a34.21,34.21,0,0,1,10.63,1.58,26.25,26.25,0,0,1,10.68,6.68,26.61,26.61,0,0,1,4.58,6.4,33,33,0,0,1,3.36,13.18c.05.79.09,1.74.09,2.72a38,38,0,0,1-1.39,10.51,27.88,27.88,0,0,1-6.64,11.68c-.43.44-.9.89-1.49,1.43-5.14,4.61-11.81,6.95-19.82,6.95H152.64V181.51Z" transform="translate(-128.62 -128.69)"/><path class="cls-1" d="M262,339.81V160.19h51.15c13.11,0,24.1,2.68,32.66,7.95a42.83,42.83,0,0,1,6,4.42,39.23,39.23,0,0,1,7.76,9.32,42.89,42.89,0,0,1,5.17,13.73,59.2,59.2,0,0,1,1.06,11.33c0,.64,0,1.25-.05,1.87l0,.5A45.89,45.89,0,0,1,363.11,223a36.61,36.61,0,0,1-4.57,8.79,34,34,0,0,1-4.37,5,35.74,35.74,0,0,1-14.11,8.08,44.83,44.83,0,0,1,10.08,4.71,40.7,40.7,0,0,1,11.33,10.77c.64.89,1.27,1.86,1.93,3A45.42,45.42,0,0,1,368.64,277a61.47,61.47,0,0,1,1.24,12.6c0,.35,0,.7,0,1.05a61.67,61.67,0,0,1-1.66,13.72,46,46,0,0,1-5.78,13.72,43.46,43.46,0,0,1-6.77,8.2,44.09,44.09,0,0,1-7.17,5.52c-8.48,5.28-19.15,8-31.7,8ZM314.33,319a44.21,44.21,0,0,0,12.31-1.61,29.06,29.06,0,0,0,11.69-6.46,25.49,25.49,0,0,0,5.35-6.87,31.09,31.09,0,0,0,3.39-13.36c0-.61,0-1.19,0-1.79a38.18,38.18,0,0,0-1.69-11.61,29.8,29.8,0,0,0-7.11-11.89c-.48-.5-1-1-1.53-1.45-5.66-5-13.22-7.58-22.45-7.58H284.49V319Zm-1.47-82.7a46.56,46.56,0,0,0,5.77-.36c6.62-.84,12.1-3.23,16.28-7.1a24,24,0,0,0,4.84-6.21,28.91,28.91,0,0,0,3.18-13.34c0-.23,0-.43,0-.63a30.48,30.48,0,0,0-2.53-12.73,24.34,24.34,0,0,0-5.39-7.46,26.06,26.06,0,0,0-10.26-5.84A39.55,39.55,0,0,0,313.11,181H284.49v55.28Z" transform="translate(-128.62 -128.69)"/><path class="cls-1" d="M313.11,160.69q19.62,0,32.4,7.88a42.92,42.92,0,0,1,5.89,4.36,38.86,38.86,0,0,1,7.66,9.21,42.24,42.24,0,0,1,5.11,13.57,58,58,0,0,1,1.05,11.23c0,.8,0,1.57-.07,2.35a45.14,45.14,0,0,1-2.51,13.57,36,36,0,0,1-4.51,8.67,33.69,33.69,0,0,1-4.3,4.9,35.69,35.69,0,0,1-15.52,8.43A44.4,44.4,0,0,1,349.87,250a40,40,0,0,1,11.19,10.64c.68.95,1.31,1.93,1.91,2.93a44.43,44.43,0,0,1,5.18,13.57,60.5,60.5,0,0,1,1.23,12.5c0,.36,0,.71,0,1.07a60.55,60.55,0,0,1-1.65,13.58A45.3,45.3,0,0,1,362,317.86a42.71,42.71,0,0,1-6.69,8.11,43.72,43.72,0,0,1-7.09,5.46q-12.66,7.88-31.44,7.88H262.46V160.69h50.65M284,236.79h28.87a47.28,47.28,0,0,0,5.83-.36q10.11-1.29,16.56-7.23a24.5,24.5,0,0,0,4.94-6.34,29.21,29.21,0,0,0,3.24-13.57c0-.22,0-.43,0-.64a30.81,30.81,0,0,0-2.58-12.94,24.49,24.49,0,0,0-5.5-7.61,26.38,26.38,0,0,0-10.45-6,40,40,0,0,0-11.81-1.63H284v56.28m0,82.7h30.34a44.58,44.58,0,0,0,12.45-1.63,29.49,29.49,0,0,0,11.89-6.57,26,26,0,0,0,5.45-7,31.35,31.35,0,0,0,3.45-13.58c0-.59,0-1.19,0-1.81a38.5,38.5,0,0,0-1.71-11.76,30.13,30.13,0,0,0-7.23-12.09c-.5-.52-1-1-1.56-1.48q-8.67-7.69-22.78-7.7H284v63.62m29.12-159.8H261.46V340.31h55.32c12.65,0,23.4-2.7,32-8A45.51,45.51,0,0,0,356,326.7a44.07,44.07,0,0,0,6.84-8.3,46.42,46.42,0,0,0,5.84-13.87,62.09,62.09,0,0,0,1.68-13.81c0-.37,0-.72,0-1.08a61.91,61.91,0,0,0-1.25-12.71,45.82,45.82,0,0,0-5.3-13.87c-.67-1.12-1.31-2.1-2-3a41.09,41.09,0,0,0-11.46-10.9,44.22,44.22,0,0,0-8.79-4.28,35.93,35.93,0,0,0,12.9-7.72,34.92,34.92,0,0,0,4.42-5,37.08,37.08,0,0,0,4.64-8.91,46.27,46.27,0,0,0,2.57-13.87l0-.47c0-.62.05-1.26.05-1.92a59.26,59.26,0,0,0-1.07-11.42,43.32,43.32,0,0,0-5.23-13.89,40.09,40.09,0,0,0-7.86-9.45,44.28,44.28,0,0,0-6-4.46c-8.65-5.33-19.73-8-32.93-8ZM285,181.51h28.12a38.94,38.94,0,0,1,11.52,1.59,25.41,25.41,0,0,1,10.05,5.73,23.45,23.45,0,0,1,5.28,7.3,30,30,0,0,1,2.49,12.52c0,.19,0,.37,0,.57h0v0a28.46,28.46,0,0,1-3.12,13.12,23.71,23.71,0,0,1-4.74,6.08c-4.1,3.79-9.48,6.14-16,7a47.27,47.27,0,0,1-5.7.35H285V181.51Zm0,75.36h29.34c9.11,0,16.55,2.51,22.12,7.45.55.48,1,.94,1.5,1.42a29.35,29.35,0,0,1,7,11.7,37.82,37.82,0,0,1,1.66,11.46c0,.61,0,1.2,0,1.78a30.43,30.43,0,0,1-3.33,13.14,25.2,25.2,0,0,1-5.25,6.73,28.57,28.57,0,0,1-11.49,6.35,44,44,0,0,1-12.17,1.59H285V256.87Z" transform="translate(-128.62 -128.69)"/></svg>